<?xml version="1.0" standalone="no"?>
<!DOCTYPE svg PUBLIC "-//W3C//DTD SVG 20010904//EN"
 "http://www.w3.org/TR/2001/REC-SVG-20010904/DTD/svg10.dtd">
<svg version="1.0" xmlns="http://www.w3.org/2000/svg"
 width="252.000000pt" height="105.000000pt" viewBox="0 0 252.000000 105.000000"
 preserveAspectRatio="xMidYMid meet">

<g transform="translate(0.000000,105.000000) scale(0.100000,-0.100000)"
fill="#000000" stroke="none">
<path d="M0 525 l0 -525 1260 0 1260 0 0 525 0 525 -1260 0 -1260 0 0 -525z
m2510 0 l0 -515 -1250 0 -1250 0 0 515 0 515 1250 0 1250 0 0 -515z"/>
<path d="M234 525 c0 -154 2 -216 3 -137 2 79 2 205 0 280 -1 75 -3 11 -3
-143z"/>
<path d="M290 525 l0 -275 135 0 c83 0 135 4 135 10 0 6 -48 10 -125 10 l-125
0 0 265 c0 170 -4 265 -10 265 -6 0 -10 -98 -10 -275z"/>
<path d="M1591 715 c-55 -17 -107 -66 -137 -130 -84 -178 73 -378 263 -335 76
16 144 82 167 159 20 68 20 84 0 152 -21 71 -90 141 -157 157 -57 15 -80 14
-136 -3z m170 -32 l49 -26 0 -173 0 -174 -52 -26 c-64 -33 -144 -31 -201 5
l-37 23 2 176 3 175 44 24 c61 32 129 31 192 -4z m-263 -270 l-3 -78 -22 45
c-31 62 -31 148 0 209 l22 46 3 -72 c2 -40 2 -107 0 -150z m362 165 c31 -68
24 -164 -17 -223 -11 -17 -13 1 -13 123 0 78 2 142 5 142 4 0 15 -19 25 -42z"/>
<path d="M644 485 c0 -132 2 -185 3 -117 2 68 2 176 0 240 -1 64 -3 9 -3 -123z"/>
<path d="M700 485 l0 -235 110 0 c67 0 110 4 110 10 0 6 -40 10 -100 10 l-100
0 0 110 0 110 80 0 c47 0 80 4 80 10 0 6 -33 10 -80 10 l-80 0 0 95 0 95 100
0 c60 0 100 4 100 10 0 6 -43 10 -110 10 l-110 0 0 -235z"/>
<path d="M981 703 c12 -15 135 -165 176 -214 11 -13 10 -18 -5 -32 -16 -15
-22 -11 -87 69 -39 47 -76 90 -82 96 -10 8 -13 -29 -13 -181 0 -121 4 -191 10
-191 6 0 10 64 10 171 l0 171 72 -86 c39 -48 75 -85 78 -84 4 2 43 46 86 97
l79 95 3 -182 c1 -110 6 -182 12 -182 6 0 10 75 10 196 0 181 2 198 20 221
l20 26 0 -222 c0 -141 4 -221 10 -221 6 0 10 85 10 235 0 129 -4 235 -9 235
-4 0 -50 -52 -102 -114 -52 -63 -96 -115 -99 -115 -3 -1 -48 51 -100 114 -52
63 -98 115 -103 115 -5 0 -3 -8 4 -17z"/>
<path d="M1957 708 c45 -59 296 -368 299 -368 2 0 3 87 2 193 l-2 192 -6 -175
-5 -175 -140 173 c-76 94 -143 172 -148 172 -6 0 -5 -5 0 -12z"/>
<path d="M1950 440 c0 -117 4 -190 10 -190 6 0 11 67 12 167 l3 168 135 -168
c74 -92 138 -167 143 -167 4 0 4 6 0 13 -13 21 -295 367 -299 367 -2 0 -4 -85
-4 -190z"/>
</g>
</svg>
