<?xml version="1.0" standalone="no"?>
<!DOCTYPE svg PUBLIC "-//W3C//DTD SVG 20010904//EN"
 "http://www.w3.org/TR/2001/REC-SVG-20010904/DTD/svg10.dtd">
<svg version="1.0" xmlns="http://www.w3.org/2000/svg"
 width="90.000000pt" height="38.000000pt" viewBox="0 0 90.000000 38.000000"
 preserveAspectRatio="xMidYMid meet">

<g transform="translate(0.000000,38.000000) scale(0.100000,-0.100000)"
fill="#000000" stroke="none">
<path d="M268 253 c12 -2 30 -2 40 0 9 3 -1 5 -23 4 -22 0 -30 -2 -17 -4z"/>
<path d="M462 229 c-13 -16 -18 -27 -10 -24 16 7 52 55 41 54 -4 0 -18 -13
-31 -30z"/>
<path d="M542 248 c-7 -7 -12 -17 -12 -22 0 -8 3 -7 8 0 4 6 16 16 27 22 15 8
16 11 5 12 -9 0 -21 -5 -28 -12z"/>
<path d="M611 258 c2 -2 17 -14 32 -28 21 -18 26 -20 21 -7 -6 17 -34 37 -50
37 -4 0 -5 -1 -3 -2z"/>
<path d="M706 249 c17 -30 89 -118 97 -119 5 0 -13 26 -39 58 -61 73 -69 81
-58 61z"/>
<path d="M803 210 c0 -30 2 -43 4 -27 2 15 2 39 0 55 -2 15 -4 2 -4 -28z"/>
<path d="M385 210 c10 -11 20 -20 23 -20 3 0 -3 9 -13 20 -10 11 -20 20 -23
20 -3 0 3 -9 13 -20z"/>
<path d="M700 211 c0 -5 7 -12 16 -15 14 -5 15 -4 4 9 -14 17 -20 19 -20 6z"/>
<path d="M417 175 c-8 -8 -18 -11 -22 -7 -5 4 -5 1 -1 -6 6 -11 12 -10 27 4
10 9 19 19 19 21 0 7 -9 2 -23 -12z"/>
<path d="M745 160 c10 -11 20 -20 23 -20 3 0 -3 9 -13 20 -10 11 -20 20 -23
20 -3 0 3 -9 13 -20z"/>
<path d="M530 121 c0 -10 39 -36 45 -29 2 2 -8 11 -21 21 -13 10 -24 13 -24 8z"/>
<path d="M631 109 c-13 -10 -19 -19 -14 -19 13 0 49 27 43 33 -3 3 -16 -3 -29
-14z"/>
<path d="M770 126 c0 -2 8 -10 18 -17 15 -13 16 -12 3 4 -13 16 -21 21 -21 13z"/>
<path d="M133 93 c15 -2 37 -2 50 0 12 2 0 4 -28 4 -27 0 -38 -2 -22 -4z"/>
<path d="M268 93 c12 -2 32 -2 45 0 12 2 2 4 -23 4 -25 0 -35 -2 -22 -4z"/>
</g>
</svg>
